# File created by Blade
# Date/Time:  Fri Jan 16 19:14:41 2015
#---------------------------------------------------------
:version 1.10
:name HOM
:units
  mass 1.0
  length 1.000000
  angle deg
:documentation
     Acclaim Skeleton File
:root
   axis xyz
   order TX TY TZ RX RY RZ
   position 0.000000 0.000000 0.000000
   orientation 0 0 0
:bonedata
   begin
      id 1
      name Spine_dum
      direction 0.000000 1.000000 0.000000
      length 7.067664
      axis 0.0 0.0 0.0 xyz
   end
   begin
      id 2
      name LeftUpLeg_dum
      direction 1.000000 0.000000 0.000000
      length 4.013002
      axis 0.0 0.0 0.0 xyz
   end
   begin
      id 3
      name RightUpLeg_dum
      direction -1.000000 0.000000 0.000000
      length 4.013002
      axis 0.0 0.0 0.0 xyz
   end
   begin
      id 4
      name Spine
      direction 0.000000 1.000000 0.000000
      length 0.000000
      axis 0.0 0.0 0.0 xyz
      dof rx ry rz
   end
   begin
      id 5
      name Spine_dum1
      direction 0.000000 1.000000 0.000000
      length 15.039886
      axis 0.0 0.0 0.0 xyz
   end
   begin
      id 6
      name Spine_dum2
      direction 0.000000 1.000000 0.000000
      length 10.530368
      axis 0.0 0.0 0.0 xyz
   end
   begin
      id 7
      name Spine_dum3
      direction 0.000000 1.000000 0.000000
      length 10.530368
      axis 0.0 0.0 0.0 xyz
   end
   begin
      id 8
      name Head
      direction 0.000000 1.000000 0.000000
      length 4.527550
      axis 0.0 0.0 0.0 xyz
      dof rx ry rz
   end
   begin
      id 9
      name LeftShoulder
      direction 1.000000 0.000000 0.000000
      length 7.028855
      axis 0.0 0.0 -90.0 xyz
      dof rx ry rz
   end
   begin
      id 10
      name LeftArm
      direction 1.000000 0.000000 0.000000
      length 10.797705
      axis 0.0 0.0 -90.0 xyz
      dof rx ry rz
   end
   begin
      id 11
      name LeftForeArm
      direction 1.000000 0.000000 0.000000
      length 7.907442
      axis 0.0 0.0 -90.0 xyz
      dof ry rz rx
   end
   begin
      id 12
      name LeftHand
      direction 0.000000 0.000000 0.000000
      length 0.000000
      axis 0.0 0.0 -90.0 xyz
      dof rx ry rz
   end
   begin
      id 13
      name LeftHand_dum1
      direction 0.000000 0.000000 0.000000
      length 0.000000
      axis 0.0 0.0 -90.0 xyz
   end
   begin
      id 14
      name LeftHand_dum2
      direction 1.000000 0.000000 0.000000
      length 3.937000
      axis 0.0 0.0 -90.0 xyz
   end
   begin
      id 15
      name LeftHandThumb1
      direction 0.000000 0.000000 1.000000
      length 3.937000
      axis 0.0 0.0 -90.0 xyz
      dof rx rz ry
   end
   begin
      id 16
      name RightShoulder
      direction -1.000000 0.000000 0.000000
      length 7.028855
      axis 0.0 0.0 90.0 xyz
      dof rx ry rz
   end
   begin
      id 17
      name RightArm
      direction -1.000000 0.000000 0.000000
      length 10.797705
      axis 0.0 0.0 90.0 xyz
      dof rx ry rz
   end
   begin
      id 18
      name RightForeArm
      direction -1.000000 0.000000 0.000000
      length 7.907442
      axis 0.0 0.0 90.0 xyz
      dof ry rz rx
   end
   begin
      id 19
      name RightHand
      direction 0.000000 0.000000 0.000000
      length 0.000000
      axis 0.0 0.0 90.0 xyz
      dof rx ry rz
   end
   begin
      id 20
      name RightHand_dum1
      direction 0.000000 0.000000 0.000000
      length 0.000000
      axis 0.0 0.0 90.0 xyz
   end
   begin
      id 21
      name RightHand_dum2
      direction -1.000000 0.000000 0.000000
      length 3.937000
      axis 0.0 0.0 90.0 xyz
   end
   begin
      id 22
      name RightHandThumb1
      direction 0.000000 0.000000 1.000000
      length 3.937000
      axis 0.0 0.0 90.0 xyz
      dof rx rz ry
   end
   begin
      id 23
      name LeftUpLeg
      direction 0.000000 -1.000000 0.000000
      length 16.899758
      axis 0.0 0.0 0.0 xyz
      dof rx ry rz
   end
   begin
      id 24
      name LeftLeg
      direction 0.000000 -1.000000 0.000000
      length 17.389183
      axis 0.0 0.0 0.0 xyz
      dof rx ry rz
   end
   begin
      id 25
      name LeftFoot
      direction 0.000000 -0.258819 0.965926
      length 4.924528
      axis 15.0 0.0 0.0 xyz
      dof rx ry rz
   end
   begin
      id 26
      name LeftToeBase
      direction 0.000000 0.000000 1.000000
      length 2.952750
      axis 0.0 0.0 0.0 xyz
      dof rx ry rz
   end
   begin
      id 27
      name RightUpLeg
      direction 0.000000 -1.000000 0.000000
      length 16.899758
      axis 0.0 0.0 0.0 xyz
      dof rx ry rz
   end
   begin
      id 28
      name RightLeg
      direction 0.000000 -1.000000 0.000000
      length 17.389183
      axis 0.0 0.0 0.0 xyz
      dof rx ry rz
   end
   begin
      id 29
      name RightFoot
      direction 0.000000 -0.258819 0.965926
      length 4.924528
      axis 15.0 0.0 0.0 xyz
      dof rx ry rz
   end
   begin
      id 30
      name RightToeBase
      direction 0.000000 0.000000 1.000000
      length 2.952750
      axis 0.0 0.0 0.0 xyz
      dof rx ry rz
   end
:hierarchy
   begin
      root Spine_dum LeftUpLeg_dum RightUpLeg_dum
      Spine_dum Spine
      LeftUpLeg_dum LeftUpLeg
      RightUpLeg_dum RightUpLeg
      Spine Spine_dum1 Spine_dum2 Spine_dum3
      Spine_dum1 Head
      Spine_dum2 LeftShoulder
      Spine_dum3 RightShoulder
      LeftShoulder LeftArm
      LeftArm LeftForeArm
      LeftForeArm LeftHand
      LeftHand LeftHand_dum1 LeftHand_dum2
      LeftHand_dum1 LeftHandThumb1
      RightShoulder RightArm
      RightArm RightForeArm
      RightForeArm RightHand
      RightHand RightHand_dum1 RightHand_dum2
      RightHand_dum1 RightHandThumb1
      LeftUpLeg LeftLeg
      LeftLeg LeftFoot
      LeftFoot LeftToeBase
      RightUpLeg RightLeg
      RightLeg RightFoot
      RightFoot RightToeBase
   end

# File created by Blade
# Date/Time:  Fri Jan 16 19:14:28 2015
# Frame Rate: 120.000 fps
#------------------------------------------------------
:FULLY-SPECIFIED
:DEGREES
1
root 19.311708 35.517419 -22.753025 -170.390743 -2.782561 -178.684543
Spine -20.423962 -0.027624 0.715752
Head 7.797909 -1.130861 2.290789
LeftShoulder -14.875443 -30.177011 22.222442
LeftArm 1.452343 -1.099918 -7.872400
LeftForeArm 5.868384 -0.000000 -2.820468
LeftHand -9.692177 -0.000000 -7.207196
LeftHandThumb1 -26.253704 0.000000 33.147579
RightShoulder -13.540370 -6.526516 -11.006443
RightArm 1.367932 41.959025 13.976037
RightForeArm -34.175858 -0.000000 5.711637
RightHand -4.575228 0.000000 11.589318
RightHandThumb1 -24.326973 -0.000000 -32.862282
LeftUpLeg 0.325851 6.439236 1.463935
LeftLeg -6.620993 -0.000000 0.000000
LeftFoot -21.381461 28.387246 -13.527377
LeftToeBase 25.492123 -0.000000 -0.000000
RightUpLeg -0.656121 -9.212349 1.283498
RightLeg -3.590054 -0.000000 0.000000
RightFoot -21.952913 -24.485724 17.266121
RightToeBase 23.508029 -0.000000 -0.000000
2
root 19.311725 35.517288 -22.753523 -170.385722 -2.773816 -178.684322
Spine -20.430216 -0.028075 0.724303
Head 7.783007 -1.103272 2.271012
LeftShoulder -14.905452 -30.174952 22.228516
LeftArm 1.458044 -1.100946 -7.881811
LeftForeArm 5.878231 -0.000000 -2.824164
LeftHand -9.683921 -0.000000 -7.222222
LeftHandThumb1 -26.253704 0.000000 33.147579
RightShoulder -13.537642 -6.525448 -11.015033
RightArm 1.363135 41.961219 13.980197
RightForeArm -34.187190 -0.000000 5.726530
RightHand -4.572901 -0.000000 11.596389
RightHandThumb1 -24.326973 -0.000000 -32.862282
LeftUpLeg 0.328155 6.438157 1.463965
LeftLeg -6.630224 -0.000000 0.000000
LeftFoot -21.378515 28.392336 -13.529711
LeftToeBase 25.509644 -0.000000 -0.000000
RightUpLeg -0.659591 -9.203139 1.282768
RightLeg -3.592627 -0.000000 0.000000
RightFoot -21.955235 -24.499765 17.263711
RightToeBase 23.538581 -0.000000 -0.000000
3
root 19.312385 35.517045 -22.753780 -170.385985 -2.767724 -178.682335
Spine -20.431229 -0.023382 0.723804
Head 7.772977 -1.103538 2.273576
LeftShoulder -14.921966 -30.173519 22.250288
LeftArm 1.431711 -1.174684 -7.896017
LeftForeArm 6.003869 -0.000000 -2.781617
LeftHand -9.664772 -0.000000 -7.311169
LeftHandThumb1 -26.253704 0.000000 33.147579
RightShoulder -13.541416 -6.519933 -11.015496
RightArm 1.366425 41.973790 13.984857
RightForeArm -34.207951 -0.000000 5.717758
RightHand -4.592346 -0.000000 11.586482
RightHandThumb1 -24.326973 -0.000000 -32.862282
LeftUpLeg 0.325157 6.455615 1.464864
LeftLeg -6.622007 -0.000000 0.000000
LeftFoot -21.382286 28.386383 -13.517454
LeftToeBase 25.542468 -0.000000 -0.000000
RightUpLeg -0.660558 -9.200376 1.285616
RightLeg -3.591425 -0.000000 0.000000
RightFoot -21.955052 -24.496620 17.253060
RightToeBase 23.548582 -0.000000 -0.000000
4
root 19.312683 35.516895 -22.754041 -170.380831 -2.760682 -178.678650
Spine -20.437907 -0.014677 0.731157
Head 7.754517 -1.085979 2.268191
LeftShoulder -14.930989 -30.181448 22.246486
LeftArm 1.422983 -1.172350 -7.896413
LeftForeArm 6.022572 0.000000 -2.775277
LeftHand -9.661955 -0.000000 -7.332160
LeftHandThumb1 -26.253704 0.000000 33.147579
RightShoulder -13.532621 -6.502692 -11.022117
RightArm 1.311911 41.920042 13.951029
RightForeArm -34.169954 0.000000 5.751713
RightHand -4.591851 -0.000000 11.640341
RightHandThumb1 -24.326973 -0.000000 -32.862282
LeftUpLeg 0.321536 6.464598 1.467815
LeftLeg -6.624586 -0.000000 0.000000
LeftFoot -21.389891 28.383546 -13.518231
LeftToeBase 25.535485 -0.000000 -0.000000
RightUpLeg -0.668390 -9.204341 1.290055
RightLeg -3.589549 -0.000000 0.000000
RightFoot -21.953051 -24.485462 17.265394
RightToeBase 23.525977 -0.000000 -0.000000
5
root 19.312795 35.516744 -22.754457 -170.378189 -2.759953 -178.680000
Spine -20.438306 -0.016994 0.733535
Head 7.735922 -1.076262 2.258843
LeftShoulder -14.952626 -30.165046 22.244351
LeftArm 1.435612 -1.195089 -7.903292
LeftForeArm 6.021517 -0.000000 -2.777540
LeftHand -9.691651 -0.000000 -7.331523
LeftHandThumb1 -26.253704 0.000000 33.147579
RightShoulder -13.538340 -6.488777 -11.022320
RightArm 1.306950 41.914103 13.942573
RightForeArm -34.176904 -0.000000 5.752152
RightHand -4.610051 0.000000 11.647697
RightHandThumb1 -24.326973 -0.000000 -32.862282
LeftUpLeg 0.321426 6.448829 1.467829
LeftLeg -6.625496 -0.000000 0.000000
LeftFoot -21.390439 28.386902 -13.519752
LeftToeBase 25.517364 -0.000000 -0.000000
RightUpLeg -0.669461 -9.200577 1.288584
RightLeg -3.590000 -0.000000 0.000000
RightFoot -21.949844 -24.487435 17.266007
RightToeBase 23.499515 -0.000000 -0.000000
6
root 19.312475 35.516532 -22.754298 -170.372923 -2.752713 -178.679272
Spine -20.441156 -0.004173 0.739130
Head 7.714240 -1.062727 2.244854
LeftShoulder -14.968872 -30.171687 22.225114
LeftArm 1.483077 -1.109601 -7.906374
LeftForeArm 5.885350 -0.000000 -2.844799
LeftHand -9.673726 -0.000000 -7.230225
LeftHandThumb1 -26.253704 0.000000 33.147579
RightShoulder -13.551292 -6.472320 -11.033647
RightArm 1.302737 41.906339 13.940111
RightForeArm -34.190079 -0.000000 5.742066
RightHand -4.594072 -0.000000 11.661256
RightHandThumb1 -24.326973 -0.000000 -32.862282
LeftUpLeg 0.315516 6.448511 1.467380
LeftLeg -6.621877 -0.000000 0.000000
LeftFoot -21.393830 28.393262 -13.525309
LeftToeBase 25.524501 -0.000000 -0.000000
RightUpLeg -0.674581 -9.194091 1.287622
RightLeg -3.591027 -0.000000 0.000000
RightFoot -21.949326 -24.493536 17.241919
RightToeBase 23.558496 -0.000000 -0.000000
7
root 19.312445 35.516336 -22.753376 -170.368621 -2.755707 -178.680176
Spine -20.438498 -0.005732 0.740546
Head 7.682885 -1.063355 2.243750
LeftShoulder -14.985684 -30.177634 22.223640
LeftArm 1.492079 -1.105324 -7.905457
LeftForeArm 5.858910 -0.000000 -2.865099
LeftHand -9.658338 0.000000 -7.248185
LeftHandThumb1 -26.253704 0.000000 33.147579
RightShoulder -13.561697 -6.478617 -11.038421
RightArm 1.296855 41.950260 13.953317
RightForeArm -34.200632 0.000000 5.765522
RightHand -4.644667 -0.000000 11.699222
RightHandThumb1 -24.326973 -0.000000 -32.862282
LeftUpLeg 0.308114 6.444027 1.465728
LeftLeg -6.619849 -0.000000 0.000000
LeftFoot -21.396326 28.403414 -13.509339
LeftToeBase 25.588881 -0.000000 -0.000000
RightUpLeg -0.686604 -9.214663 1.289597
RightLeg -3.578225 -0.000000 0.000000
RightFoot -21.956978 -24.479888 17.240247
RightToeBase 23.571518 -0.000000 -0.000000
8
root 19.313005 35.516475 -22.752886 -170.366297 -2.755063 -178.684049
Spine -20.437291 -0.007025 0.733280
Head 7.666891 -1.043636 2.252524
LeftShoulder -15.000859 -30.175312 22.239054
LeftArm 1.449320 -1.182460 -7.906349
LeftForeArm 5.975142 -0.000000 -2.788384
LeftHand -9.658470 -0.000000 -7.380535
LeftHandThumb1 -26.253704 0.000000 33.147579
RightShoulder -13.561834 -6.470944 -11.030051
RightArm 1.278859 42.005464 13.934663
RightForeArm -34.226553 -0.000000 5.742763
RightHand -4.591717 0.000000 11.701854
RightHandThumb1 -24.326973 -0.000000 -32.862282
LeftUpLeg 0.292046 6.482516 1.460287
LeftLeg -6.597135 -0.000000 0.000000
LeftFoot -21.396671 28.361715 -13.510741
LeftToeBase 25.530052 -0.000000 -0.000000
RightUpLeg -0.687208 -9.196710 1.286371
RightLeg -3.582823 -0.000000 0.000000
RightFoot -21.959060 -24.494025 17.238999
RightToeBase 23.557611 -0.000000 -0.000000
9
root 19.313622 35.516204 -22.752238 -170.367890 -2.755153 -178.682849
Spine -20.430236 -0.006389 0.735245
Head 7.645887 -1.035179 2.251757
LeftShoulder -15.004887 -30.199631 22.237415
LeftArm 1.424283 -1.183709 -7.898411
LeftForeArm 5.997679 -0.000000 -2.768843
LeftHand -9.656965 -0.000000 -7.391920
LeftHandThumb1 -26.253704 0.000000 33.147579
RightShoulder -13.574531 -6.468557 -11.034442
RightArm 1.288910 42.054302 13.953003
RightForeArm -34.238014 -0.000000 5.724500
RightHand -4.596388 -0.000000 11.662943
RightHandThumb1 -24.326973 -0.000000 -32.862282
LeftUpLeg 0.297871 6.444783 1.464852
LeftLeg -6.605156 -0.000000 0.000000
LeftFoot -21.398278 28.396655 -13.518248
LeftToeBase 25.523057 -0.000000 -0.000000
RightUpLeg -0.687513 -9.197792 1.289215
RightLeg -3.581219 -0.000000 0.000000
RightFoot -21.954147 -24.489222 17.234516
RightToeBase 23.505255 -0.000000 -0.000000
